<svg version="1.1" xmlns="http://www.w3.org/2000/svg" viewBox="0 0 1315.068473678427 476" width="2630.136947356854" height="952">
  <!-- svg-source:excalidraw -->
  
  <defs>
    <style>
      @font-face {
        font-family: "Virgil";
        src: url("https://excalidraw.com/Virgil.woff2");
      }
      @font-face {
        font-family: "Cascadia";
        src: url("https://excalidraw.com/Cascadia.woff2");
      }
    </style>
  </defs>
  <g transform="translate(195.0684736784267 10) rotate(0 180 18)"><text x="0" y="25" font-family="Virgil, Segoe UI Emoji" font-size="28px" fill="#000000" text-anchor="start" style="white-space: pre;" direction="ltr">Status From Edwin Server</text></g><g transform="translate(918.8184736784269 73.75) rotate(0 99.5 18)"><text x="0" y="25" font-family="Virgil, Segoe UI Emoji" font-size="28px" fill="#000000" text-anchor="start" style="white-space: pre;" direction="ltr">Remote worker</text></g><g stroke-linecap="round" transform="translate(107.56847367842681 83.75) rotate(0 41.25 174.375)"><path d="M-0.87 1.34 C29.8 -1.01, 62.75 0.43, 81.49 -0.91 M0.81 0.35 C28.44 0.4, 55.88 -0.11, 83.43 -0.96 M83.56 -1.12 C81.51 115.83, 82.5 230.07, 82.13 349.95 M82.39 0.12 C81.93 81.08, 82.81 162.86, 82.54 348.51 M81.69 348.26 C52.74 349.34, 21.01 348.71, 0.32 347.42 M83.31 348.95 C57.11 348.2, 30.98 347.89, -0.9 349.42 M0.61 349.28 C0.37 226.43, -0.01 102.35, -0.77 -1.11 M-0.35 348.76 C0.67 224.21, 0.6 98.97, -0.53 -0.14" stroke="#000000" stroke-width="1" fill="none"></path></g><g stroke-linecap="round" transform="translate(315.0684736784267 363.75) rotate(0 95 38.125)"><path d="M-0.27 0.32 C60.84 0.99, 125 -0.02, 191.63 0.4 M-0.51 -0.9 C57.05 2.07, 112.78 1.08, 190.47 0.41 M189.78 -1.18 C188.77 26.27, 189.57 52.02, 188.91 76.29 M190.6 -0.82 C190.42 18.91, 189.79 37.27, 190.76 76.97 M188.66 75.9 C113.87 74.15, 39.51 75.13, 0.31 76.31 M189.75 75.43 C143.09 75.02, 95.69 73.61, -0.42 75.29 M-0.33 77.35 C-1.41 54.7, 0.61 34.76, -1.93 0.84 M0.8 76.94 C1.29 51.42, 1.56 26.02, 0.84 -0.59" stroke="#000000" stroke-width="1" fill="none"></path></g><g stroke-linecap="round" transform="translate(315.0684736784267 91.25) rotate(0 75.625 42.5)"><path d="M1.51 1.45 C49.89 0.04, 94.65 -1.03, 150.9 -1.08 M0.16 0.03 C38.5 0.39, 77.05 -0.35, 150.43 0.39 M150.42 -1.92 C150.91 29.63, 152.23 61.31, 152.35 83.14 M150.28 0.42 C151.66 20.86, 150.93 44, 151.94 85.72 M152.93 83.83 C95.86 84.99, 42.61 87.62, 1.04 84.01 M152.18 85.14 C109.79 85.91, 67.6 86.86, -0.98 85.76 M0.41 86.25 C-1.16 62.26, -0.45 40.17, -1.12 0.03 M0.39 84.92 C-0.86 66.16, -0.14 48, 0.19 -0.74" stroke="#000000" stroke-width="1" fill="none"></path></g><g transform="translate(337.5684736784267 383.75) rotate(0 59 18)"><text x="0" y="25" font-family="Virgil, Segoe UI Emoji" font-size="28px" fill="#000000" text-anchor="start" style="white-space: pre;" direction="ltr">Grafana</text></g><g transform="translate(104.13149659727816 243.45259272569456) rotate(269.1656544244532 41.22010819199801 21.82241021929309)"><text x="0" y="30.64482043858613" font-family="Virgil, Segoe UI Emoji" font-size="33.94597145223366px" fill="#000000" text-anchor="start" style="white-space: pre;" direction="ltr">Nginx</text></g><g stroke-linecap="round"><g transform="translate(10.439491226142252 247.24845031700096) rotate(0 40.60124954077884 -1.5142240030430685)"><path d="M0.67 -0.18 C14.27 -0.49, 68.07 -0.6, 81.64 -0.92 M-0.44 -1.32 C13.03 -2.09, 67.19 -2.86, 80.89 -2.85" stroke="#000000" stroke-width="1" fill="none"></path></g><g transform="translate(10.439491226142252 247.24845031700096) rotate(0 40.60124954077884 -1.5142240030430685)"><path d="M52.49 8.29 C61.85 5.74, 68.33 1.84, 81.32 -2.69 M53.02 7.32 C60.88 5.44, 68.35 1.9, 81.5 -3.11" stroke="#000000" stroke-width="1" fill="none"></path></g><g transform="translate(10.439491226142252 247.24845031700096) rotate(0 40.60124954077884 -1.5142240030430685)"><path d="M52.32 -12.23 C61.89 -8.57, 68.43 -6.26, 81.32 -2.69 M52.85 -13.2 C60.74 -9.49, 68.26 -7.44, 81.5 -3.11" stroke="#000000" stroke-width="1" fill="none"></path></g></g><g transform="translate(17.568473678426756 203.75) rotate(0 21.5 13)"><text x="0" y="18" font-family="Virgil, Segoe UI Emoji" font-size="20px" fill="#000000" text-anchor="start" style="white-space: pre;" direction="ltr">http</text></g><g stroke-linecap="round" transform="translate(315.0684736784267 241.25) rotate(0 106.875 43.75)"><path d="M-0.93 0.2 C69.53 -1.59, 136.95 -1.73, 212.09 -0.85 M-0.29 0.81 C77.88 2.16, 155.24 1.9, 213.52 0.65 M212.04 1.2 C213.67 24.67, 213.81 47.35, 211.99 88.45 M212.77 -0.58 C214.05 30.09, 213.55 59.04, 213.39 88.17 M213.77 86.24 C168.97 87.91, 122.23 86.49, -0.91 86.95 M213.87 87.1 C168.57 86.55, 122.59 87.35, -0.13 88.18 M-1.12 85.65 C-0.89 62.97, -0.92 38.07, 1.98 0.21 M-0.31 88.1 C0.34 53.73, 0.01 21.07, 0.04 -0.15" stroke="#000000" stroke-width="1" fill="none"></path></g><g transform="translate(352.5684736784267 118.75) rotate(0 46.5 18)"><text x="0" y="25" font-family="Virgil, Segoe UI Emoji" font-size="28px" fill="#000000" text-anchor="start" style="white-space: pre;" direction="ltr">Django</text></g><g transform="translate(331.3184736784267 260) rotate(0 89.5 18)"><text x="0" y="25" font-family="Virgil, Segoe UI Emoji" font-size="28px" fill="#000000" text-anchor="start" style="white-space: pre;" direction="ltr">Alertmanager</text></g><g stroke-linecap="round"><g transform="translate(195.95956278733775 141.86458471719249) rotate(0 52.79488097550521 -1.4128830154865852)"><path d="M-0.25 0.6 C16.9 0.26, 86.07 -1.02, 103.61 -1.62 M1.82 -0.12 C19.28 -0.86, 88.72 -3.1, 105.84 -3.43" stroke="#000000" stroke-width="1" fill="none"></path></g><g transform="translate(195.95956278733775 141.86458471719249) rotate(0 52.79488097550521 -1.4128830154865852)"><path d="M78.94 6.04 C88.89 4.53, 96.55 -0.05, 106.4 -4.95 M78.78 7.34 C85.32 5.17, 93.36 2.43, 105.63 -4.39" stroke="#000000" stroke-width="1" fill="none"></path></g><g transform="translate(195.95956278733775 141.86458471719249) rotate(0 52.79488097550521 -1.4128830154865852)"><path d="M78.39 -14.47 C88.6 -8.63, 96.47 -5.86, 106.4 -4.95 M78.22 -13.18 C84.93 -9.4, 93.13 -6.2, 105.63 -4.39" stroke="#000000" stroke-width="1" fill="none"></path></g></g><g stroke-linecap="round"><g transform="translate(201.91586207707405 409.22108677259246) rotate(0 56.53414606791458 0.30229418652493223)"><path d="M-0.65 0.19 C17.91 0.36, 92.75 -0.03, 111.32 0.25 M1.21 -0.76 C20.18 -0.38, 95.08 1.25, 113.72 1.37" stroke="#000000" stroke-width="1" fill="none"></path></g><g transform="translate(201.91586207707405 409.22108677259246) rotate(0 56.53414606791458 0.30229418652493223)"><path d="M85.69 10.22 C92.45 6.53, 103.44 4.05, 114.06 2.58 M84.61 11.45 C92.17 8.96, 97.68 7.3, 113.6 1.14" stroke="#000000" stroke-width="1" fill="none"></path></g><g transform="translate(201.91586207707405 409.22108677259246) rotate(0 56.53414606791458 0.30229418652493223)"><path d="M86 -10.3 C92.53 -7.95, 103.43 -4.41, 114.06 2.58 M84.92 -9.07 C92.4 -7.27, 97.84 -4.64, 113.6 1.14" stroke="#000000" stroke-width="1" fill="none"></path></g></g><g stroke-linecap="round"><g transform="translate(349.35760091336306 232.20442379768508) rotate(0 0.2518216317247379 -23.036040757931488)"><path d="M0.6 0.6 C0.96 -7.14, 1.08 -38.68, 1.04 -46.67 M-0.55 -0.13 C-0.28 -7.69, -0.62 -37.62, -0.08 -45.37" stroke="#000000" stroke-width="1" fill="none"></path></g><g transform="translate(349.35760091336306 232.20442379768508) rotate(0 0.2518216317247379 -23.036040757931488)"><path d="M8.3 -23.99 C5.07 -29.63, 2.42 -31.55, -0.33 -46.1 M8.02 -23.17 C6.6 -28.07, 3.65 -33.03, -0.74 -45.44" stroke="#000000" stroke-width="1" fill="none"></path></g><g transform="translate(349.35760091336306 232.20442379768508) rotate(0 0.2518216317247379 -23.036040757931488)"><path d="M-7.52 -24.38 C-7.46 -30.02, -6.83 -31.86, -0.33 -46.1 M-7.8 -23.56 C-5.57 -28.35, -4.87 -33.22, -0.74 -45.44" stroke="#000000" stroke-width="1" fill="none"></path></g></g><g transform="translate(375.0684736784267 200) rotate(0 31.5 10.5)"><text x="0" y="15" font-family="Virgil, Segoe UI Emoji" font-size="16px" fill="#000000" text-anchor="start" style="white-space: pre;" direction="ltr">Webhook</text></g><g stroke-linecap="round" transform="translate(802.5684736784267 290) rotate(0 97.50000000000011 36.25)"><path d="M0.79 0.06 C47.83 -1.75, 91.38 -0.31, 194.86 -1.76 M0.45 0.5 C72.94 1.96, 144.95 2.83, 195.9 -0.4 M196.37 -0.43 C194.58 28.17, 197.34 52.68, 196.43 73.49 M194.97 -0.74 C193.7 23.85, 194.69 45.61, 194.34 71.84 M196.76 72.84 C146.06 73.49, 97.19 72.75, -1.62 72.1 M195.29 72.27 C134.99 73.31, 76.28 74.22, -0.08 72.67 M1.77 70.97 C1.01 49.06, 1.22 20.95, 0.56 1.1 M0.24 73.48 C0.61 53.87, -0.91 36.27, -0.06 0.07" stroke="#000000" stroke-width="1" fill="none"></path></g><g transform="translate(825.0684736784269 312.5) rotate(0 78 18)"><text x="0" y="25" font-family="Virgil, Segoe UI Emoji" font-size="28px" fill="#000000" text-anchor="start" style="white-space: pre;" direction="ltr">Prometheus</text></g><g stroke-linecap="round" transform="translate(1133.818473678427 286.25) rotate(0 71.25 36.875)"><path d="M-0.65 -0.48 C43.28 -1.33, 85.84 -0.28, 141.31 -0.46 M0.73 0.6 C29.1 -0.87, 58.21 -1.99, 141.64 0.24 M142.67 -0.35 C142.01 27.16, 140.26 54.99, 142.22 75.06 M142.22 0.08 C142.75 19.28, 142.79 39.2, 142.26 72.99 M142.66 72.93 C86.7 74.3, 32.66 75.1, -1.64 71.83 M142.59 73.72 C93.89 75.3, 44.99 75.75, -0.4 73.26 M-1.9 72.98 C-0.08 51.85, 0.69 30.92, -0.43 1.92 M-0.81 74.5 C-0.26 53.3, 0.24 30.65, 0.45 0.52" stroke="#000000" stroke-width="1" fill="none"></path></g><g transform="translate(1145.068473678427 306.25) rotate(0 60.5 18)"><text x="0" y="25" font-family="Virgil, Segoe UI Emoji" font-size="28px" fill="#000000" text-anchor="start" style="white-space: pre;" direction="ltr">Blackbox</text></g><g stroke-linecap="round"><g transform="translate(1004.5396275245807 327.44360653122976) rotate(0 65.74247721250242 -0.3289425305099485)"><path d="M-1.13 0.62 C20.79 0.38, 110.33 -0.77, 132.62 -1.27 M0.47 -0.11 C22.18 -0.15, 109.98 0.52, 131.91 0.25" stroke="#000000" stroke-width="1" fill="none"></path></g><g transform="translate(1004.5396275245807 327.44360653122976) rotate(0 65.74247721250242 -0.3289425305099485)"><path d="M104.76 11.3 C114.65 7.52, 123.7 4.22, 130.75 1 M103.14 9.72 C109.9 7.95, 115.92 6.79, 131.99 -0.47" stroke="#000000" stroke-width="1" fill="none"></path></g><g transform="translate(1004.5396275245807 327.44360653122976) rotate(0 65.74247721250242 -0.3289425305099485)"><path d="M104.73 -9.23 C114.66 -5, 123.72 -0.31, 130.75 1 M103.12 -10.8 C109.98 -7.86, 116.01 -4.31, 131.99 -0.47" stroke="#000000" stroke-width="1" fill="none"></path></g></g><g stroke-linecap="round" transform="translate(800.0684736784267 153.75) rotate(0 236.8750000000001 35.625)"><path d="M0.21 -0.76 C113.79 -0.54, 228.22 -0.27, 474.34 0.18 M0.1 -0.39 C125.91 1.11, 251.98 1.29, 473.59 -0.4 M472.9 1.87 C475.48 16.23, 472.71 32.47, 474.22 73.22 M474.61 -0.95 C474.72 23.05, 475.13 46.55, 474.44 70.75 M473.74 70.38 C293.39 69.46, 112.38 70.33, 0.29 70.61 M474.18 71.33 C295.17 70.36, 117.06 71.14, -0.05 71.25 M-1.12 69.71 C1.7 47.89, -0.08 25.12, -1.22 -0.12 M-0.92 71.68 C0.58 51.38, -0.44 31.7, -0.17 0.96" stroke="#000000" stroke-width="1" fill="none"></path></g><g transform="translate(908.8184736784267 171.25) rotate(0 116.5 18)"><text x="0" y="25" font-family="Virgil, Segoe UI Emoji" font-size="28px" fill="#000000" text-anchor="start" style="white-space: pre;" direction="ltr">Heartbeat script</text></g><g stroke-linecap="round"><g transform="translate(476.2393597543762 145.5308046277155) rotate(0 158.1558971777722 13.444720816041468)"><path d="M0.9 -1.03 C53.51 3.48, 263.85 22.13, 316.4 26.77 M-0.08 1.04 C52.36 5.71, 263.18 23.47, 315.81 27.92" stroke="#000000" stroke-width="1" fill="none"></path></g><g transform="translate(476.2393597543762 145.5308046277155) rotate(0 158.1558971777722 13.444720816041468)"><path d="M28.16 -7.65 C18.17 -4.95, 7.74 -3.21, -0.42 0.72 M30.35 -7.89 C21.99 -6.1, 15.51 -4.38, 1.85 -0.32" stroke="#000000" stroke-width="1" fill="none"></path></g><g transform="translate(476.2393597543762 145.5308046277155) rotate(0 158.1558971777722 13.444720816041468)"><path d="M26.36 12.8 C17.07 8.08, 7.3 2.43, -0.42 0.72 M28.55 12.55 C20.52 9.27, 14.49 5.92, 1.85 -0.32" stroke="#000000" stroke-width="1" fill="none"></path></g></g><g stroke-linecap="round"><g transform="translate(875.7990019890347 229.12792112950342) rotate(0 0.04897934308769436 28.948619538195686)"><path d="M0.44 1.11 C0.6 10.62, 0.94 48.05, 0.87 57.24 M-0.78 0.65 C-0.76 9.79, 0.07 45.97, 0.01 55.42" stroke="#000000" stroke-width="1" fill="none"></path></g><g transform="translate(875.7990019890347 229.12792112950342) rotate(0 0.04897934308769436 28.948619538195686)"><path d="M-8.09 29.17 C-6.03 35.48, -4.75 45.65, 1.16 54.11 M-9.99 28.06 C-7.3 36.68, -4.28 41.89, -0.11 56.07" stroke="#000000" stroke-width="1" fill="none"></path></g><g transform="translate(875.7990019890347 229.12792112950342) rotate(0 0.04897934308769436 28.948619538195686)"><path d="M11.29 28.98 C7.67 35.42, 3.26 45.64, 1.16 54.11 M9.39 27.87 C6.97 36.63, 4.9 41.89, -0.11 56.07" stroke="#000000" stroke-width="1" fill="none"></path></g></g><g transform="translate(580.0684736784267 124.96905940594058) rotate(0 89.125 9.265470297029708)"><text x="0" y="12.530940594059416" font-family="Virgil, Segoe UI Emoji" font-size="14.118811881188124px" fill="#000000" text-anchor="start" style="white-space: pre;" direction="ltr">Register and fetch config</text></g><g transform="translate(905.0684736784269 247.5) rotate(0 40.5 10.5)"><text x="0" y="15" font-family="Virgil, Segoe UI Emoji" font-size="16px" fill="#000000" text-anchor="start" style="white-space: pre;" direction="ltr">Init config</text></g><g transform="translate(1016.3184736784269 341.25) rotate(0 46 10.5)"><text x="0" y="15" font-family="Virgil, Segoe UI Emoji" font-size="16px" fill="#000000" text-anchor="start" style="white-space: pre;" direction="ltr">Pull metrics</text></g><g stroke-linecap="round"><g transform="translate(1166.7257975346142 369.64953271028037) rotate(0 -8.440810236890457 34.6747881476374)"><path d="M0.44 0.87 C-2.35 12.18, -13.92 56.51, -16.69 67.65 M-0.79 0.29 C-3.69 11.79, -14.72 57.63, -17.32 69.06" stroke="#000000" stroke-width="1" fill="none"></path></g><g transform="translate(1166.7257975346142 369.64953271028037) rotate(0 -8.440810236890457 34.6747881476374)"><path d="M-19.39 40.29 C-20.23 50.1, -19.1 55.93, -15.67 68.62 M-20.61 40.01 C-18.86 52.01, -18.06 62.19, -16.44 69.09" stroke="#000000" stroke-width="1" fill="none"></path></g><g transform="translate(1166.7257975346142 369.64953271028037) rotate(0 -8.440810236890457 34.6747881476374)"><path d="M0.58 44.99 C-6.28 53.45, -11.19 57.86, -15.67 68.62 M-0.63 44.71 C-6.82 54.78, -13.97 63.1, -16.44 69.09" stroke="#000000" stroke-width="1" fill="none"></path></g></g><g stroke-linecap="round"><g transform="translate(1181.5499759356464 371.02803738317766) rotate(0 3.580723775199317 31.912390580774456)"><path d="M-0.22 -0.1 C1.16 10.46, 7.66 53.17, 8.95 63.97 M-1.79 -1.19 C-0.54 9.43, 7.18 53.83, 8.59 65.02" stroke="#000000" stroke-width="1" fill="none"></path></g><g transform="translate(1181.5499759356464 371.02803738317766) rotate(0 3.580723775199317 31.912390580774456)"><path d="M-5.96 40.55 C-2.04 47.7, 4.38 56.51, 9.38 63.67 M-4.97 37.85 C-2.21 44.91, 1.16 52.26, 9.53 65.61" stroke="#000000" stroke-width="1" fill="none"></path></g><g transform="translate(1181.5499759356464 371.02803738317766) rotate(0 3.580723775199317 31.912390580774456)"><path d="M14.32 37.46 C10.96 45.69, 10.08 55.6, 9.38 63.67 M15.31 34.76 C12.55 42.64, 10.37 50.83, 9.53 65.61" stroke="#000000" stroke-width="1" fill="none"></path></g></g><g stroke-linecap="round"><g transform="translate(1188.1784899549455 368.9602803738318) rotate(0 15.656320044312565 32.92583724683698)"><path d="M-0.87 -1.07 C4.34 10.28, 26.57 55.52, 32.19 66.92 M0.87 0.99 C5.88 12.09, 26.17 54.36, 31.46 65.13" stroke="#000000" stroke-width="1" fill="none"></path></g><g transform="translate(1188.1784899549455 368.9602803738318) rotate(0 15.656320044312565 32.92583724683698)"><path d="M8.16 44.93 C18.87 54.01, 27.68 58.09, 31.67 63.2 M9.21 45.22 C15.34 48.28, 20.8 54.91, 32.46 65.92" stroke="#000000" stroke-width="1" fill="none"></path></g><g transform="translate(1188.1784899549455 368.9602803738318) rotate(0 15.656320044312565 32.92583724683698)"><path d="M26.62 35.99 C30.32 48.29, 32.2 55.72, 31.67 63.2 M27.68 36.28 C29.54 41.44, 30.68 50.15, 32.46 65.92" stroke="#000000" stroke-width="1" fill="none"></path></g></g><g stroke-linecap="round"><g transform="translate(1214.7087068149324 368.2710280373833) rotate(0 32.70024355425255 33.62067326539585)"><path d="M-1.01 -1.03 C10.01 10.03, 55.43 55.45, 66.41 66.72 M0.67 1.04 C11.53 12.27, 54.58 57.13, 65.66 68.27" stroke="#000000" stroke-width="1" fill="none"></path></g><g transform="translate(1214.7087068149324 368.2710280373833) rotate(0 32.70024355425255 33.62067326539585)"><path d="M36.92 55.9 C47.59 57.82, 56.25 63.73, 63.74 67.52 M39.35 55.89 C46.21 58.64, 54.12 62.69, 65.09 68.83" stroke="#000000" stroke-width="1" fill="none"></path></g><g transform="translate(1214.7087068149324 368.2710280373833) rotate(0 32.70024355425255 33.62067326539585)"><path d="M51.62 41.58 C57.51 48.07, 61.36 58.67, 63.74 67.52 M54.04 41.57 C56.94 48.2, 60.82 56.17, 65.09 68.83" stroke="#000000" stroke-width="1" fill="none"></path></g></g><g stroke-linecap="round"><g transform="translate(795.1920201900546 311.64415592566706) rotate(0 -128.59810735202524 -7.470642710343384)"><path d="M-0.24 0.42 C-43.22 -2.33, -214.9 -12.61, -258 -15.36 M1.83 -0.4 C-41.3 -2.45, -215.98 -11.42, -259.02 -13.89" stroke="#000000" stroke-width="1" fill="none"></path></g><g transform="translate(795.1920201900546 311.64415592566706) rotate(0 -128.59810735202524 -7.470642710343384)"><path d="M-229.62 -22.86 C-238.69 -21.81, -248.16 -19.6, -258.23 -13.79 M-229.87 -23.14 C-239.63 -19.57, -248.87 -16.65, -259.16 -14.28" stroke="#000000" stroke-width="1" fill="none"></path></g><g transform="translate(795.1920201900546 311.64415592566706) rotate(0 -128.59810735202524 -7.470642710343384)"><path d="M-230.72 -2.37 C-239.67 -7.2, -248.83 -10.87, -258.23 -13.79 M-230.98 -2.65 C-240.18 -6.02, -249.05 -10.02, -259.16 -14.28" stroke="#000000" stroke-width="1" fill="none"></path></g></g><g transform="translate(606.3184736784267 271.25) rotate(0 46.5 10.5)"><text x="0" y="15" font-family="Virgil, Segoe UI Emoji" font-size="16px" fill="#000000" text-anchor="start" style="white-space: pre;" direction="ltr">Push alerts</text></g><g stroke-linecap="round"><g transform="translate(512.4225334341122 401.2175281687528) rotate(0 141.41669999612634 -28.43706674942007)"><path d="M-0.23 -0.99 C47.41 -10.67, 237.09 -48.5, 284.65 -57.98 M-1.81 1.1 C45.82 -8.48, 236.22 -47.29, 284.01 -56.97" stroke="#000000" stroke-width="1" fill="none"></path></g><g transform="translate(512.4225334341122 401.2175281687528) rotate(0 141.41669999612634 -28.43706674942007)"><path d="M256.78 -40.3 C261.89 -42.6, 267.24 -49.48, 283.91 -56.63 M258.85 -40.48 C265.35 -46.44, 273.94 -51.24, 283.31 -57.13" stroke="#000000" stroke-width="1" fill="none"></path></g><g transform="translate(512.4225334341122 401.2175281687528) rotate(0 141.41669999612634 -28.43706674942007)"><path d="M252.69 -60.41 C258.64 -58.65, 264.82 -61.46, 283.91 -56.63 M254.76 -60.59 C262.44 -60.45, 272.27 -59.16, 283.31 -57.13" stroke="#000000" stroke-width="1" fill="none"></path></g></g><g transform="translate(577.5684736784267 393.75) rotate(0 88.5 10.5)"><text x="0" y="15" font-family="Virgil, Segoe UI Emoji" font-size="16px" fill="#000000" text-anchor="start" style="white-space: pre;" direction="ltr">Query data to display</text></g><g stroke-linecap="round"><g transform="translate(200.9405667016826 278.4767986819437) rotate(0 50.40254327751387 0.2861191204125362)"><path d="M0.65 -0.87 C17.55 -0.47, 84.26 1.39, 101.27 1.44 M-0.47 1.29 C16.25 1.45, 82.96 0.04, 100.13 -0.12" stroke="#000000" stroke-width="1" fill="none"></path></g><g transform="translate(200.9405667016826 278.4767986819437) rotate(0 50.40254327751387 0.2861191204125362)"><path d="M70.66 9.97 C82.1 9.16, 86.93 4.32, 99.52 0.31 M72.59 10.74 C83.21 7, 94.22 2.59, 99.28 -0.93" stroke="#000000" stroke-width="1" fill="none"></path></g><g transform="translate(200.9405667016826 278.4767986819437) rotate(0 50.40254327751387 0.2861191204125362)"><path d="M70.34 -10.55 C81.72 -5.4, 86.64 -4.27, 99.52 0.31 M72.27 -9.78 C83.18 -5.49, 94.31 -1.88, 99.28 -0.93" stroke="#000000" stroke-width="1" fill="none"></path></g></g><g stroke-linecap="round" transform="translate(73.8184736784267 66.25) rotate(0 247.5 197.5)"><path d="M-0.14 -0.36 C148.77 -0.78, 298.74 -1.62, 494.37 0.14 M-0.11 -0.37 C181.21 -2.24, 362.17 -2.02, 495.02 0.15 M495.22 0.94 C496.59 158.85, 496.89 314.51, 494.65 394.96 M495.03 0.29 C497.05 146.21, 496.48 291.69, 494.59 395.33 M494.3 394.51 C349.01 397.43, 202.54 396.21, 0.14 394.86 M494.63 394.83 C305.53 393.26, 115.89 393.02, 0.19 394.72 M-0.17 394.33 C0.33 303.08, -0.85 210.33, -0.79 -0.11 M0.4 394.68 C2.57 242.46, 2.26 90.99, 0.27 -0.5" stroke="#000000" stroke-width="1" fill="none"></path></g><g stroke-linecap="round" transform="translate(770.0684736784267 130) rotate(0 267.5000000000001 129.375)"><path d="M0.44 0.42 C113.69 -1.06, 228.75 -0.53, 534.21 -0.77 M0.19 -0.34 C111.78 0.62, 223.35 0.17, 535.13 0.24 M535.36 -0.12 C533.35 72.62, 533.64 148.83, 533.47 259.55 M534.27 0.12 C533.88 96.02, 533.16 191.54, 535.36 259.3 M535.11 258.29 C362.03 258.29, 189.88 258.14, -0.62 258.14 M534.64 258.54 C349.26 260.89, 163 260.49, -0.33 258.98 M-1.1 258.68 C3.27 183.58, 0.5 109.84, -0.64 -0.54 M0.19 258.12 C-1.76 159.01, -1.07 60.41, 0.55 -0.52" stroke="#000000" stroke-width="1" fill="none"></path></g><g transform="translate(1115.068473678427 445) rotate(0 16.5 10.5)"><text x="0" y="15" font-family="Virgil, Segoe UI Emoji" font-size="16px" fill="#000000" text-anchor="start" style="white-space: pre;" direction="ltr">URL</text></g><g transform="translate(1164.818473678427 442) rotate(0 16.5 10.5)"><text x="0" y="15" font-family="Virgil, Segoe UI Emoji" font-size="16px" fill="#000000" text-anchor="start" style="white-space: pre;" direction="ltr">URL</text></g><g transform="translate(1219.818473678427 442) rotate(0 16.5 10.5)"><text x="0" y="15" font-family="Virgil, Segoe UI Emoji" font-size="16px" fill="#000000" text-anchor="start" style="white-space: pre;" direction="ltr">URL</text></g><g transform="translate(1264.818473678427 440.75) rotate(0 16.5 10.5)"><text x="0" y="15" font-family="Virgil, Segoe UI Emoji" font-size="16px" fill="#000000" text-anchor="start" style="white-space: pre;" direction="ltr">URL</text></g><g transform="translate(228.8184736784267 116.25) rotate(0 4.5 10.5)"><text x="0" y="15" font-family="Virgil, Segoe UI Emoji" font-size="16px" fill="#000000" text-anchor="start" style="white-space: pre;" direction="ltr">/</text></g><g transform="translate(197.5684736784267 231.25) rotate(0 55.5 10.5)"><text x="0" y="15" font-family="Virgil, Segoe UI Emoji" font-size="16px" fill="#000000" text-anchor="start" style="white-space: pre;" direction="ltr">/alertmanager</text></g><g transform="translate(213.8184736784267 372.5) rotate(0 35.5 10.5)"><text x="0" y="15" font-family="Virgil, Segoe UI Emoji" font-size="16px" fill="#000000" text-anchor="start" style="white-space: pre;" direction="ltr">/grafana</text></g></svg>