<svg viewBox="0 0 72 72" xmlns="http://www.w3.org/2000/svg"><path d="m34 16.1123v-2.5109c0-1.3807 1.1193-2.5 2.5-2.5s2.5 1.1193 2.5 2.5v2.5" fill="#d22f27"/><g fill="#d0cfce"><path d="m13.5 41.1014c-1.3807 0-2.5-1.1193-2.5-2.5v-8c0-1.3807 1.1193-2.5 2.5-2.5s2.5 1.1193 2.5 2.5v8c0 1.3807-1.1193 2.5-2.5 2.5z"/><path d="m58.5 41.1014c1.3807 0 2.5-1.1193 2.5-2.5v-8c0-1.3807-1.1193-2.5-2.5-2.5s-2.5 1.1193-2.5 2.5v8c0 1.3807 1.1193 2.5 2.5 2.5z"/><path d="m47.4505 56.1123h-22.901c-4.7022 0-8.5495-3.8473-8.5495-8.5495v-22.901c0-4.7022 3.8473-8.5495 8.5495-8.5495h22.901c4.7022 0 8.5495 3.8473 8.5495 8.5495v22.901c0 4.7021-3.8473 8.5495-8.5495 8.5495z"/></g><path d="m35.4977 56.1115h13.2865c3.9687 0 7.2158-3.8473 7.2158-8.5495v-22.901c0-4.7022-3.2471-8.5495-7.2158-8.5495h-2.3526" fill="#9b9b9a"/><ellipse cx="44.8346" cy="29.0027" fill="#fff" rx="2.8338" ry="2.8338"/><ellipse cx="27.3342" cy="29.0022" fill="#fff" rx="2.8338" ry="2.8338"/><path d="m44.5 47.5005h-17c-2.2 0-4-1.8-4-4s1.8-4 4-4h17c2.2 0 4 1.8 4 4s-1.8 4-4 4z" fill="#fff"/><g fill="none" stroke="#000" stroke-miterlimit="2" stroke-width="2"><path d="m34 16.0109v-2.5109c0-1.3807 1.1193-2.5 2.5-2.5s2.5 1.1193 2.5 2.5v2.5" stroke-linecap="round" stroke-linejoin="round"/><path d="m47.4505 56h-22.901c-4.7022 0-8.5495-3.8473-8.5495-8.5495v-22.901c0-4.7022 3.8473-8.5495 8.5495-8.5495h22.901c4.7022 0 8.5495 3.8473 8.5495 8.5495v22.901c0 4.7022-3.8473 8.5495-8.5495 8.5495z" stroke-linecap="round" stroke-linejoin="round"/><ellipse cx="44.8346" cy="29.0022" rx="2.8338" ry="2.8338" stroke-linecap="round" stroke-linejoin="round"/><ellipse cx="27.3342" cy="29.0017" rx="2.8338" ry="2.8338" stroke-linecap="round" stroke-linejoin="round"/><path d="m44.5 47.5h-17c-2.2 0-4-1.8-4-4s1.8-4 4-4h17c2.2 0 4 1.8 4 4s-1.8 4-4 4z"/><g stroke-linecap="round" stroke-linejoin="round"><path d="m13.5 41c-1.3807 0-2.5-1.1193-2.5-2.5v-8c0-1.3807 1.1193-2.5 2.5-2.5s2.5 1.1193 2.5 2.5v8c0 1.3807-1.1193 2.5-2.5 2.5z"/><path d="m58.5 41c1.3807 0 2.5-1.1193 2.5-2.5v-8c0-1.3807-1.1193-2.5-2.5-2.5s-2.5 1.1193-2.5 2.5v8c0 1.3807 1.1193 2.5 2.5 2.5z"/><path d="m28 40v7"/><path d="m33 40v7"/><path d="m38 40v7"/><path d="m43 40v7"/></g></g></svg>